<svg xmlns="http://www.w3.org/2000/svg" width="1200" height="1204" viewBox="0 0 1200 1204" role="img" aria-label="Hackathons and events, most recent first after the Siemens Healthineers Hackathon (3rd place)">
<title>Hackathons and events, most recent first after the Siemens Healthineers Hackathon (3rd place)</title>
<style>
.date{font:800 13px system-ui, -apple-system, 'Segoe UI', 'Noto Sans', Roboto, Ubuntu, Helvetica, Arial, sans-serif;letter-spacing:1px}
.badge{font:800 13px system-ui, -apple-system, 'Segoe UI', 'Noto Sans', Roboto, Ubuntu, Helvetica, Arial, sans-serif;letter-spacing:1px}
.et{font:700 21px system-ui, -apple-system, 'Segoe UI', 'Noto Sans', Roboto, Ubuntu, Helvetica, Arial, sans-serif;fill:#e6edf3}
.org{font:600 15px system-ui, -apple-system, 'Segoe UI', 'Noto Sans', Roboto, Ubuntu, Helvetica, Arial, sans-serif;fill:#3fb950}
.sum{font:400 15px system-ui, -apple-system, 'Segoe UI', 'Noto Sans', Roboto, Ubuntu, Helvetica, Arial, sans-serif;fill:#9198a1}
.card{animation:rise .7s ease both}
.pin{animation:rise .7s ease both,pulse 3s ease-in-out .8s infinite}
@keyframes rise{from{opacity:0;transform:translateY(10px)}to{opacity:1;transform:none}}
@keyframes pulse{0%,100%{filter:none}50%{filter:drop-shadow(0 0 6px #3fb950)}}@media (prefers-reduced-motion: reduce){*{animation:none!important}}</style>
<g class="card pin" style="animation-delay:0.00s"><rect x="24" y="24" width="566" height="176" rx="14" fill="rgba(46,160,67,0.18)" stroke="#3fb950" stroke-width="2.5"/><rect x="46" y="44" width="104" height="28" rx="14" fill="#238636"/><text x="98" y="63" class="date" fill="#fff" text-anchor="middle">JAN 2026</text><rect x="430" y="44" width="138" height="28" rx="14" fill="rgba(187,128,9,0.18)" stroke="#d29922" stroke-opacity=".5"/><text x="499" y="63" class="badge" fill="#d29922" text-anchor="middle">★ 3RD PLACE</text><text x="46" y="114" class="et">Siemens Healthineers Hackathon</text><text x="46" y="142" class="org">Siemens Healthineers · Erlangen, Germany</text><text x="46" y="167" class="sum">Voice and gesture control for humanoid robots in clinics</text></g><g class="card" style="animation-delay:0.07s"><rect x="610" y="24" width="566" height="176" rx="14" fill="#161b22" stroke="#30363d" stroke-width="1.5"/><rect x="632" y="44" width="104" height="28" rx="14" fill="rgba(46,160,67,0.18)"/><text x="684" y="63" class="date" fill="#3fb950" text-anchor="middle">AUG 2026</text><text x="632" y="102" class="et">Bad Honnef Physics School</text><text x="632" y="127" class="et">on Quantum Machine Learning</text><text x="632" y="155" class="org">DPG · Bad Honnef, Germany</text><text x="632" y="180" class="sum">QML, ZX calculus, tensor networks, error correction</text></g><g class="card" style="animation-delay:0.14s"><rect x="24" y="220" width="566" height="176" rx="14" fill="#161b22" stroke="#30363d" stroke-width="1.5"/><rect x="46" y="240" width="104" height="28" rx="14" fill="rgba(46,160,67,0.18)"/><text x="98" y="259" class="date" fill="#3fb950" text-anchor="middle">AUG 2026</text><rect x="358" y="240" width="210" height="28" rx="14" fill="rgba(163,113,247,0.18)" stroke="#a371f7" stroke-opacity=".5"/><text x="463" y="259" class="badge" fill="#a371f7" text-anchor="middle">QUANTUM EXCELLENCE</text><text x="46" y="310" class="et">Qiskit Global Summer School 2026</text><text x="46" y="338" class="org">IBM Quantum · online</text><text x="46" y="363" class="sum">IBM&#x27;s quantum computing summer school</text></g><g class="card" style="animation-delay:0.21s"><rect x="610" y="220" width="566" height="176" rx="14" fill="#161b22" stroke="#30363d" stroke-width="1.5"/><rect x="632" y="240" width="104" height="28" rx="14" fill="rgba(46,160,67,0.18)"/><text x="684" y="259" class="date" fill="#3fb950" text-anchor="middle">JUN 2026</text><text x="632" y="298" class="et">Mathematical Foundations</text><text x="632" y="323" class="et">of Quantum Computing</text><text x="632" y="351" class="org">UHasselt · Hasselt, Belgium</text><text x="632" y="376" class="sum">QFT, phase estimation, Shor&#x27;s and Grover&#x27;s algorithms</text></g><g class="card" style="animation-delay:0.28s"><rect x="24" y="416" width="566" height="176" rx="14" fill="#161b22" stroke="#30363d" stroke-width="1.5"/><rect x="46" y="436" width="104" height="28" rx="14" fill="rgba(46,160,67,0.18)"/><text x="98" y="455" class="date" fill="#3fb950" text-anchor="middle">MAY 2026</text><text x="46" y="506" class="et">ETH Zürich Quantum Hackathon 2026</text><text x="46" y="534" class="org">ETH Zürich · Zürich, Switzerland</text><text x="46" y="559" class="sum">Benchmarked photonic quantum PINNs (Quandela challenge)</text></g><g class="card" style="animation-delay:0.35s"><rect x="610" y="416" width="566" height="176" rx="14" fill="#161b22" stroke="#30363d" stroke-width="1.5"/><rect x="632" y="436" width="104" height="28" rx="14" fill="rgba(46,160,67,0.18)"/><text x="684" y="455" class="date" fill="#3fb950" text-anchor="middle">APR 2026</text><text x="632" y="506" class="et">Project Management for Physicists</text><text x="632" y="534" class="org">DPG Akademie · Braunschweig, Germany</text><text x="632" y="559" class="sum">Two-day seminar: planning, stakeholders, milestones</text></g><g class="card" style="animation-delay:0.42s"><rect x="24" y="612" width="566" height="176" rx="14" fill="#161b22" stroke="#30363d" stroke-width="1.5"/><rect x="46" y="632" width="104" height="28" rx="14" fill="rgba(46,160,67,0.18)"/><text x="98" y="651" class="date" fill="#3fb950" text-anchor="middle">MAR 2026</text><text x="46" y="702" class="et">Quantum Ideas Factory 2026</text><text x="46" y="730" class="org">European Center for Quantum Sciences · France</text><text x="46" y="755" class="sum">Entanglement from random permutation circuits, 20 qubits</text></g><g class="card" style="animation-delay:0.49s"><rect x="610" y="612" width="566" height="176" rx="14" fill="#161b22" stroke="#30363d" stroke-width="1.5"/><rect x="632" y="632" width="104" height="28" rx="14" fill="rgba(46,160,67,0.18)"/><text x="684" y="651" class="date" fill="#3fb950" text-anchor="middle">JAN 2026</text><text x="632" y="702" class="et">MIT iQuHACK 2026</text><text x="632" y="730" class="org">MIT · Cambridge, USA</text><text x="632" y="755" class="sum">NVIDIA challenge: quantum-seeded tabu search for LABS</text></g><g class="card" style="animation-delay:0.56s"><rect x="24" y="808" width="566" height="176" rx="14" fill="#161b22" stroke="#30363d" stroke-width="1.5"/><rect x="46" y="828" width="104" height="28" rx="14" fill="rgba(46,160,67,0.18)"/><text x="98" y="847" class="date" fill="#3fb950" text-anchor="middle">DEC 2025</text><text x="46" y="898" class="et">IQM Quantum School</text><text x="46" y="926" class="org">IQM · online</text><text x="46" y="951" class="sum">Bernstein–Vazirani, Grover and QAOA on IQM hardware</text></g><g class="card" style="animation-delay:0.63s"><rect x="610" y="808" width="566" height="176" rx="14" fill="#161b22" stroke="#30363d" stroke-width="1.5"/><rect x="632" y="828" width="104" height="28" rx="14" fill="rgba(46,160,67,0.18)"/><text x="684" y="847" class="date" fill="#3fb950" text-anchor="middle">NOV 2025</text><text x="632" y="898" class="et">Quantum Industry Summit 2025</text><text x="632" y="926" class="org">d-fine · Frankfurt, Germany</text><text x="632" y="951" class="sum">Quantum hardware, algorithms, QML and industry use cases</text></g><g class="card" style="animation-delay:0.70s"><rect x="24" y="1004" width="566" height="176" rx="14" fill="#161b22" stroke="#30363d" stroke-width="1.5"/><rect x="46" y="1024" width="104" height="28" rx="14" fill="rgba(46,160,67,0.18)"/><text x="98" y="1043" class="date" fill="#3fb950" text-anchor="middle">NOV 2025</text><text x="46" y="1094" class="et">Quantum Computing Industry Training</text><text x="46" y="1122" class="org">Fraunhofer IAO · Stuttgart, Germany</text><text x="46" y="1147" class="sum">Algorithms, error correction and hardware architectures</text></g><g class="card" style="animation-delay:0.77s"><rect x="610" y="1004" width="566" height="176" rx="14" fill="#161b22" stroke="#30363d" stroke-width="1.5"/><rect x="632" y="1024" width="104" height="28" rx="14" fill="rgba(46,160,67,0.18)"/><text x="684" y="1043" class="date" fill="#3fb950" text-anchor="middle">AUG 2025</text><rect x="944" y="1024" width="210" height="28" rx="14" fill="rgba(163,113,247,0.18)" stroke="#a371f7" stroke-opacity=".5"/><text x="1049" y="1043" class="badge" fill="#a371f7" text-anchor="middle">QUANTUM EXCELLENCE</text><text x="632" y="1094" class="et">Qiskit Global Summer School 2025</text><text x="632" y="1122" class="org">IBM Quantum · online</text><text x="632" y="1147" class="sum">Two weeks: algorithms, hardware and error correction</text></g>
</svg>
